<svg width="40" height="40" viewBox="0 0 40 40" fill="none" xmlns="http://www.w3.org/2000/svg">
<circle cx="20" cy="20" r="20" fill="#FFC045"/>
<path d="M19.9955 28.9998C18.4689 28.9935 16.9528 28.8738 15.4542 28.5738C14.3858 28.3588 13.3396 28.0682 12.3399 27.6306C12.0513 27.5049 11.7699 27.3636 11.4968 27.2073C11.1437 27.0028 10.974 26.6984 11.0032 26.2751C11.0575 25.4942 11.1469 24.7203 11.3658 23.9659C11.6434 23.0083 12.0665 22.1331 12.8121 21.4378C13.5274 20.7708 14.3342 20.272 15.3097 20.0926C15.733 20.0144 16.1428 20.0451 16.5389 20.268C17.3671 20.7332 18.2727 20.9692 19.2144 21.0647C20.37 21.182 21.4995 21.06 22.5943 20.6702C22.8969 20.5625 23.2002 20.4406 23.4763 20.2792C23.8726 20.0476 24.2869 20.0195 24.7147 20.0978C26.2601 20.3792 27.8163 21.7163 28.3709 23.1657C28.7719 24.2134 28.9649 25.2924 28.9996 26.404C29.0106 26.7587 28.8084 27.0226 28.515 27.2008C27.978 27.5272 27.3961 27.7597 26.8037 27.966C25.57 28.3953 24.2986 28.661 23.0036 28.82C22.0054 28.9435 21.0018 28.9955 19.9955 28.9998ZM20.0016 27.4977C20.7652 27.4528 21.5301 27.4232 22.2923 27.362C23.5143 27.264 24.7177 27.0533 25.8877 26.682C26.241 26.5691 26.5875 26.436 26.9255 26.2834C27.2025 26.159 27.365 25.9406 27.3184 25.6119C27.2817 25.3532 27.2588 25.0925 27.2173 24.8346C27.1471 24.3995 26.9732 23.9986 26.7958 23.598C26.3468 22.5826 25.6262 21.8817 24.5143 21.6373C24.1784 21.5636 23.8303 21.538 23.506 21.6806C22.545 22.1037 21.5263 22.2656 20.4925 22.3633C19.817 22.427 19.1509 22.344 18.4885 22.2335C17.8555 22.1279 17.2228 22.0093 16.6364 21.7385C16.3031 21.5842 15.9627 21.5636 15.6139 21.6122C14.9123 21.71 14.3381 22.0454 13.8672 22.5684C13.5024 22.9738 13.2818 23.4603 13.0692 23.9508C12.8157 24.5338 12.7173 25.1532 12.6934 25.7841C12.6926 25.8739 12.7234 25.9612 12.7805 26.0307C12.8731 26.1339 12.9832 26.2363 13.1064 26.2951C13.7799 26.615 14.4948 26.8156 15.2198 26.9795C16.7925 27.3347 18.3898 27.4654 20.0016 27.4979V27.4977Z" fill="#111111"/>
<path d="M14.8389 14.1328C14.8413 11.2967 17.1591 8.99642 20.0107 9C22.8623 9.00359 25.1739 11.3122 25.1671 14.148C25.1604 16.9839 22.8478 19.277 19.9899 19.2739C17.1471 19.2707 14.8366 16.9653 14.8389 14.1328ZM23.7332 14.1328C23.7323 13.6449 23.6347 13.162 23.446 12.7118C23.2573 12.2615 22.9812 11.8528 22.6336 11.509C22.2859 11.1651 21.8736 10.893 21.4201 10.7081C20.9667 10.5232 20.4811 10.4292 19.9911 10.4315C17.9341 10.4367 16.2595 12.1101 16.2741 14.1458C16.2888 16.2003 17.9587 17.8529 20.0095 17.8428C22.0748 17.8334 23.7402 16.1728 23.7323 14.1341L23.7332 14.1328Z" fill="#111111"/>
</svg>
