<svg width="40" height="40" viewBox="0 0 40 40" fill="none" xmlns="http://www.w3.org/2000/svg">
<circle cx="20" cy="20" r="20" fill="#FFC045"/>
<g clip-path="url(#clip0_570_7)">
<path d="M17.2076 29.0007H17.0361C16.9729 28.9924 16.9095 28.9856 16.8465 28.9754C15.8944 28.8207 15.2309 28.3011 14.9412 27.3865C14.6482 26.4618 14.9028 25.6496 15.6055 24.987C15.796 24.8074 16.0373 24.6811 16.2698 24.5189C16.2698 24.5159 16.2649 24.481 16.2572 24.447C15.3801 20.5617 14.5027 16.6763 13.6249 12.7908C13.5592 12.5001 13.4359 12.4039 13.1314 12.4039C11.9961 12.4039 10.8607 12.4039 9.72518 12.4039C9.37845 12.4022 9.11743 12.2042 9.02143 11.875C9.01543 11.8593 9.00827 11.8441 9 11.8294V11.5954C9.11893 11.14 9.45131 10.9951 9.8634 10.9996C10.9777 11.0122 12.0921 11.0007 13.2064 11.0054C13.823 11.0079 14.3103 11.2735 14.6851 11.7535C14.8994 12.0261 14.9731 12.3493 15.0423 12.6765C15.0903 12.9038 15.1443 13.1295 15.196 13.3574H28.8917C28.9489 13.3574 29.0061 13.3561 29.0631 13.3591C29.3447 13.374 29.5849 13.4812 29.7626 13.6996C30.0478 14.0502 30.0609 14.4322 29.8826 14.8369C28.9272 17.0072 27.9734 19.178 27.0211 21.3494C26.7613 21.9415 26.3023 22.2298 25.6601 22.2303C22.8852 22.2327 20.1102 22.2327 17.3351 22.2303H17.2016C17.2037 22.2604 17.2074 22.2905 17.2127 22.3203C17.3642 22.9799 17.5187 23.6382 17.6655 24.2991C17.6869 24.4002 17.7279 24.4236 17.8275 24.4236C20.5848 24.4206 23.3421 24.4206 26.0994 24.4236C26.292 24.421 26.4842 24.4393 26.6728 24.4781C27.6933 24.7053 28.4168 25.5724 28.4652 26.6093C28.4879 27.1074 28.3447 27.599 28.0578 28.0082C27.7709 28.4174 27.3562 28.7214 26.8779 28.8732C26.6765 28.9371 26.4607 28.9583 26.2513 28.9985H26.0799C25.9815 28.9847 25.8827 28.972 25.7846 28.956C24.5845 28.7739 23.7102 27.6004 23.8891 26.4061C23.9161 26.226 23.9667 26.0494 24.0063 25.8718H19.2796C19.2916 25.9122 19.2997 25.9424 19.3096 25.9722C19.7148 27.1921 19.0653 28.4806 17.8346 28.8768C17.6334 28.9415 17.4169 28.9598 17.2076 29.0007ZM15.5185 14.7624C15.5186 14.7772 15.5197 14.792 15.5217 14.8066C15.9646 16.7761 16.4074 18.7457 16.8503 20.7155C16.8718 20.81 16.9069 20.8368 17.0044 20.8368C19.8687 20.8338 22.7331 20.8338 25.5977 20.8368C25.6854 20.8368 25.7263 20.8117 25.7629 20.7304C26.573 18.8797 27.3852 17.0298 28.1995 15.1809C28.2591 15.0456 28.3173 14.9098 28.381 14.7635L15.5185 14.7624ZM26.1607 25.8203C25.6616 25.8309 25.2643 26.2305 25.2735 26.7127C25.2748 26.8309 25.2998 26.9477 25.347 27.0562C25.3942 27.1648 25.4627 27.263 25.5484 27.345C25.6342 27.4271 25.7355 27.4914 25.8465 27.5343C25.9574 27.5771 26.0759 27.5976 26.1949 27.5946C26.6835 27.5838 27.0736 27.1752 27.0652 26.6846C27.0558 26.2037 26.6439 25.809 26.1607 25.8203ZM17.1053 25.8271C16.6431 25.8207 16.2462 26.215 16.2394 26.6878C16.2371 26.8041 16.2579 26.9198 16.3007 27.0281C16.3434 27.1364 16.4072 27.2354 16.4885 27.3192C16.5697 27.4031 16.6668 27.4702 16.7742 27.5168C16.8816 27.5634 16.9972 27.5886 17.1143 27.5908C17.2315 27.5931 17.348 27.5724 17.4571 27.5299C17.5662 27.4875 17.6658 27.4241 17.7503 27.3434C17.8347 27.2628 17.9024 27.1664 17.9493 27.0597C17.9962 26.9531 18.0216 26.8384 18.0238 26.722C18.0305 26.2092 17.646 25.8347 17.1053 25.8271Z" fill="#111111"/>
</g>
<defs>
<clipPath id="clip0_570_7">
<rect width="21" height="18" fill="white" transform="translate(9 11)"/>
</clipPath>
</defs>
</svg>
